<svg width="317" height="39" viewBox="0 0 317 39" fill="none" xmlns="http://www.w3.org/2000/svg">
<g clip-path="url(#clip0_518_3298)">
<path fill-rule="evenodd" clip-rule="evenodd" d="M57.1762 18.3615L54.8227 22.8138C54.7815 22.8919 54.7817 22.9858 54.8231 23.0639L57.5925 28.2695C57.6238 28.3285 57.5817 28.3996 57.5156 28.3996L52.0168 28.4036C51.9199 28.4036 51.831 28.4575 51.7853 28.5435L49.6076 32.6478C49.514 32.8244 49.6407 33.0379 49.8392 33.0379H64.9654C65.1637 33.0379 65.2904 32.8249 65.1972 32.648L57.6395 18.3615C57.5407 18.1744 57.275 18.1744 57.1762 18.3615Z" fill="#3994FF"/>
<path fill-rule="evenodd" clip-rule="evenodd" d="M54.757 7.92331L42.0008 32.6259C41.9097 32.802 42.0362 33.0133 42.2334 33.0133L46.9364 33.0153C47.0342 33.0155 47.1239 32.9606 47.1693 32.8731L59.9577 8.16376C60.0492 7.98715 59.922 7.77566 59.7246 7.77588L54.9894 7.78093C54.8917 7.78114 54.8021 7.83599 54.757 7.92331Z" fill="#3994FF"/>
<path fill-rule="evenodd" clip-rule="evenodd" d="M73.6957 19.3911C73.6957 19.4373 73.7544 19.4551 73.7793 19.4163L81.1355 7.87784C81.1688 7.82541 81.2257 7.79381 81.2869 7.79359L86.2829 7.76837C86.4274 7.76771 86.5149 7.93115 86.4363 8.05488L79.7961 18.4977C79.7568 18.5598 79.7572 18.6399 79.7972 18.7013L88.9459 32.7609C89.0263 32.8842 88.9417 33.0492 88.7969 33.0492C87.7187 33.049 84.3885 33.0514 83.7805 33.0521C83.7204 33.0521 83.6647 33.0214 83.6314 32.9702L77.1825 23.0794C77.1099 22.9682 76.9492 22.9695 76.8786 23.082L73.7245 28.104C73.7146 28.138 73.7054 28.1703 73.6957 28.2043L73.6936 32.8579C73.6934 32.9604 73.6122 33.0433 73.5121 33.0433H69.3065C69.2062 33.0433 69.125 32.9604 69.125 32.8577V31.8922L69.1263 2.62505C69.1263 2.5226 69.2075 2.43945 69.3076 2.43945H73.5132C73.6135 2.43945 73.6949 2.5226 73.6949 2.62505L73.6957 19.3911Z" fill="white"/>
<path fill-rule="evenodd" clip-rule="evenodd" d="M105.261 25.6951C105.231 25.7478 105.2 25.8 105.169 25.8513L105.026 26.0874L105.032 26.0878C104.165 27.486 102.506 29.0945 99.4155 29.3387C97.8227 29.4385 96.8747 28.9572 96.3629 28.5377C95.6176 27.8816 95.2237 26.959 95.2237 25.8698C95.2237 23.7722 96.592 22.7334 99.9465 22.2837C101.986 22.0061 104.447 21.8304 105.988 21.7771C106.022 21.7758 106.05 21.8041 106.05 21.8394L106.05 22.5226C106.015 23.2553 105.886 24.3288 105.467 25.2801C105.403 25.4163 105.336 25.5552 105.261 25.6951ZM100.889 7.83374C96.2542 7.83374 92.7894 9.91024 91.3512 13.5387C91.3147 13.6306 91.3563 13.7364 91.444 13.7789L95.0351 15.5101C95.1317 15.5568 95.2449 15.5072 95.2829 15.4052C96.1446 13.0867 97.9832 11.9117 100.751 11.9117C104.218 11.9117 106.05 13.3028 106.05 15.9348V17.9655C106.05 17.9988 106.023 18.0262 105.99 18.0276C101.765 18.1767 98.057 18.3808 95.4258 19.246C92.2314 20.3017 90.543 22.6086 90.543 25.9167C90.543 30.5557 93.7973 33.6725 98.641 33.6725C98.6874 33.6725 98.7323 33.6707 98.7774 33.669L98.8547 33.6664L98.856 33.6666C98.8951 33.6668 102.662 33.7385 105.959 30.9512C105.999 30.9177 106.058 30.9455 106.058 30.9979L106.053 32.8577C106.052 32.961 106.134 33.045 106.235 33.045H110.501C110.602 33.045 110.684 32.9615 110.684 32.8584V15.9348C110.684 10.7108 107.206 7.83374 100.889 7.83374Z" fill="white"/>
<path fill-rule="evenodd" clip-rule="evenodd" d="M45.478 7.78345L40.7428 7.78827C40.6451 7.78849 40.5553 7.84334 40.5102 7.93088L34.6201 20.3864L30.0337 7.93088C29.9883 7.84334 29.8988 7.78849 29.8011 7.78827L25.066 7.78345C24.8686 7.78323 24.7415 7.99472 24.833 8.17132L31.6991 26.2146L27.2351 35.4769C27.144 35.6533 27.2709 35.8643 27.4679 35.8646L32.1707 35.8665C32.2687 35.8665 32.3584 35.8117 32.4037 35.7241L45.7109 8.17132C45.8026 7.99472 45.6754 7.78323 45.478 7.78345Z" fill="white"/>
<path fill-rule="evenodd" clip-rule="evenodd" d="M11.4604 11.8798C14.9725 11.8798 17.0318 14.1821 17.2727 18.3673H5.00904C5.31725 14.4793 7.8916 11.8798 11.4604 11.8798ZM16.1396 27.4697H21.3435C19.7049 31.348 16.1699 33.5715 11.6086 33.5715C4.81982 33.5715 0.078125 28.2869 0.078125 20.7207C0.078125 13.0638 4.6525 7.91943 11.4604 7.91943C16.2665 7.91943 19.7966 10.5032 21.4002 15.1939C22.0168 17.0549 22.3003 19.0487 22.3486 21.8621L22.3516 22.0293H4.9605C5.34775 26.7926 7.73932 29.4123 11.7078 29.4123C13.6249 29.4123 15.0756 28.77 16.1396 27.4697Z" fill="white"/>
</g>
<g clip-path="url(#clip1_518_3298)">
<path d="M213.376 0H161.431C158.056 0 155.393 2.75266 155.393 6.12689V31.6112C155.393 34.9854 158.145 37.6493 161.519 37.6493H213.465C216.839 37.6493 219.503 34.8966 219.503 31.5224V6.03809C219.503 2.66387 216.75 0 213.376 0Z" fill="#050404"/>
<path d="M181.233 28.237C178.658 26.4611 176.793 25.6619 173.508 26.4611C169.068 27.5266 162.764 31.9664 162.764 31.9664C162.764 31.9664 169.512 28.9473 171.998 28.4146C173.952 28.0594 177.06 26.7274 181.233 28.237Z" fill="#ED1C24"/>
<path d="M182.742 28.5033C187.715 31.7887 192.243 31.1672 195.529 30.5456C199.791 29.7464 209.736 22.9092 209.736 22.9092C201.3 26.3722 198.548 28.3257 195.795 28.9473C193.842 29.48 188.159 30.812 182.742 28.5033Z" fill="#ED1C24"/>
<path d="M178.835 13.2303C178.835 8.61297 176.171 7.01465 172.708 7.01465C167.913 7.01465 164.095 9.50092 163.296 19.5348C163.03 23.5306 164.983 25.4841 166.937 25.9281C167.381 29.3023 170.755 29.3023 172.619 29.3023C173.596 29.3023 174.662 29.2135 175.639 28.9471L175.905 27.26C175.283 27.3488 174.662 27.4376 174.04 27.5264C171.82 27.5264 171.465 26.5497 171.376 26.1945C177.592 25.3065 178.835 16.9597 178.835 13.2303ZM169.423 24.3298C167.114 24.3298 166.493 21.5771 166.759 19.2684C167.025 16.5158 167.647 8.87935 172.442 8.87935C175.195 8.87935 175.55 11.5432 175.372 13.0527C174.751 21.2219 173.152 24.3298 169.423 24.3298Z" fill="white"/>
<path d="M191.886 21.1334L186.469 7.28125H180.52L180.342 8.43559C180.342 8.43559 180.875 8.52439 181.763 8.70198C182.651 8.87957 182.74 9.14596 182.562 10.2115C182.385 11.277 179.898 25.9283 179.898 25.9283H182.207L184.693 11.4546L190.376 26.0171H193.395L196.503 7.37005H194.283L191.886 21.1334Z" fill="white"/>
<path d="M198.191 7.37012L197.303 11.8099H198.635C199.167 9.05723 200.588 9.23482 201.299 9.23482H203.074L200.233 25.9284H203.696L206.537 9.23482H208.669C210.533 9.23482 210.356 10.5668 210.089 11.8987H211.421L212.132 7.37012H198.191Z" fill="white"/>
<path d="M239.039 7.28118C239.394 7.19238 239.749 7.19238 240.193 7.19238H240.726C240.904 7.19238 241.081 7.19238 241.259 7.28118V14.74L244.189 7.28118C244.367 7.28118 244.544 7.19238 244.722 7.19238H245.699C245.876 7.19238 245.965 7.19238 246.143 7.28118L246.498 14.9176L249.162 7.28118C249.339 7.28118 249.517 7.19238 249.695 7.19238H250.76C250.938 7.19238 251.115 7.19238 251.293 7.28118L247.119 17.5815C246.942 17.5815 246.764 17.6703 246.587 17.6703H246.054C245.699 17.6703 245.344 17.6703 244.9 17.5815L244.544 10.9218L241.792 17.5815H240.549C240.282 17.5815 239.927 17.5815 239.661 17.4927L239.039 7.28118Z" fill="#F96D2C"/>
<path d="M252.624 7.28101H258.219V7.4586C258.219 7.72498 258.219 7.99137 258.13 8.25776C258.041 8.52414 257.952 8.79053 257.863 9.05692H254.312L253.956 11.2768H256.798C256.798 11.8096 256.709 12.4311 256.443 13.0527H253.601L253.157 15.8054H256.798V15.983C256.798 16.2494 256.798 16.5157 256.709 16.7821C256.62 17.0485 256.531 17.3149 256.531 17.5813H250.76L252.624 7.28101Z" fill="#F96D2C"/>
<path d="M263.192 7.28111C263.458 7.19231 263.813 7.19231 264.169 7.19231C264.524 7.19231 264.879 7.10352 265.323 7.10352C265.856 7.10352 266.3 7.10352 266.744 7.19231C267.188 7.28111 267.543 7.3699 267.898 7.54749C268.253 7.72508 268.52 7.99147 268.697 8.25786C268.875 8.52424 268.964 8.96822 268.964 9.4122C268.964 9.76738 268.875 10.0338 268.786 10.3002C268.697 10.5665 268.52 10.8329 268.342 11.0993C268.164 11.3657 267.898 11.5433 267.72 11.7209C267.454 11.8985 267.277 11.9873 267.01 11.9873C267.543 12.0761 267.987 12.3425 268.342 12.7864C268.608 13.2304 268.786 13.6744 268.786 14.1184C268.786 14.7399 268.697 15.2727 268.431 15.8055C268.164 16.2495 267.809 16.6046 267.365 16.871C266.921 17.1374 266.389 17.315 265.767 17.4926C265.145 17.5814 264.524 17.6702 263.813 17.6702H262.748C262.393 17.6702 261.949 17.5814 261.416 17.4926L263.192 7.28111ZM263.725 15.9831H264.435C264.701 15.9831 264.879 15.9831 265.145 15.8943C265.412 15.8055 265.678 15.7167 265.856 15.6279C266.122 15.4503 266.3 15.2727 266.389 15.0951C266.566 14.8287 266.655 14.5623 266.655 14.1184C266.655 13.6744 266.477 13.408 266.211 13.2304C265.945 13.0528 265.589 12.964 265.057 12.964H264.257L263.725 15.9831ZM265.145 11.4545C265.323 11.4545 265.589 11.4545 265.767 11.3657C265.945 11.2769 266.122 11.1881 266.3 11.0105C266.477 10.8329 266.566 10.6553 266.655 10.4777C266.744 10.2114 266.833 10.0338 266.833 9.67859C266.833 9.50099 266.833 9.3234 266.744 9.14581C266.655 8.96822 266.566 8.87943 266.389 8.87943C266.211 8.87943 266.122 8.79063 265.945 8.70184C265.767 8.61304 265.589 8.70184 265.501 8.70184H264.968L264.524 11.4545H265.145Z" fill="#F96D2C"/>
<path d="M271.448 7.28111C271.626 7.28111 271.804 7.19231 271.981 7.19231H273.047C273.224 7.19231 273.402 7.19231 273.579 7.28111L272.692 12.6088C272.603 12.964 272.603 13.3192 272.514 13.6744C272.425 14.0296 272.425 14.296 272.425 14.4735C272.425 15.0063 272.514 15.3615 272.692 15.5391C272.869 15.8055 273.224 15.8943 273.668 15.8943C274.023 15.8943 274.29 15.8055 274.556 15.7167C274.823 15.6279 275 15.3615 275.178 15.0951C275.355 14.8287 275.444 14.4735 275.622 14.0296C275.799 13.5856 275.799 13.1416 275.977 12.52L276.865 7.19231C277.042 7.19231 277.22 7.10352 277.398 7.10352H278.463C278.641 7.10352 278.818 7.10352 278.996 7.19231L278.019 12.964C277.842 13.7632 277.753 14.3847 277.486 15.0063C277.22 15.6279 277.042 16.0719 276.687 16.427C276.332 16.7822 275.888 17.1374 275.355 17.315C274.823 17.4926 274.201 17.5814 273.491 17.5814C272.425 17.5814 271.715 17.315 271.182 16.871C270.649 16.427 270.383 15.6279 270.383 14.5623C270.383 14.1184 270.472 13.5856 270.56 12.964L271.448 7.28111Z" fill="#F96D2C"/>
<path d="M281.04 7.28118C281.395 7.19238 281.75 7.19238 282.105 7.19238H282.638C282.815 7.19238 282.993 7.19238 283.171 7.28118L281.395 17.5815C281.04 17.6703 280.684 17.6703 280.329 17.6703C279.974 17.6703 279.619 17.6703 279.264 17.5815L281.04 7.28118Z" fill="#F96D2C"/>
<path d="M285.391 7.28118C285.746 7.19238 286.102 7.19238 286.457 7.19238C286.812 7.19238 287.167 7.19238 287.433 7.28118L285.924 15.7168H289.298V16.1607C289.298 16.3383 289.298 16.4271 289.209 16.6047C289.209 16.7823 289.121 16.8711 289.121 17.0487C289.121 17.2263 289.032 17.3151 289.032 17.4927H283.615L285.391 7.28118Z" fill="#F96D2C"/>
<path d="M292.406 7.28111C292.761 7.19231 293.205 7.19231 293.56 7.19231C293.915 7.10352 294.359 7.10352 294.803 7.10352C295.514 7.10352 296.224 7.19231 296.757 7.3699C297.378 7.54749 297.822 7.81388 298.266 8.16906C298.71 8.52424 298.977 8.96822 299.243 9.50099C299.421 10.0338 299.598 10.5665 299.598 11.2769C299.598 12.3425 299.421 13.2304 299.154 14.0296C298.799 14.8287 298.355 15.5391 297.822 16.0719C297.201 16.6046 296.579 17.0486 295.78 17.315C294.981 17.5814 294.093 17.759 293.116 17.759C292.583 17.759 292.139 17.759 291.784 17.6702C291.429 17.6702 291.074 17.5814 290.719 17.5814L292.406 7.28111ZM292.939 15.8943H293.649C294.182 15.8943 294.715 15.8055 295.159 15.5391C295.603 15.3615 295.958 15.0063 296.313 14.6511C296.668 14.296 296.846 13.7632 297.023 13.2304C297.201 12.6976 297.29 12.0761 297.29 11.4545C297.29 11.0105 297.201 10.6553 297.112 10.3002C297.023 9.94497 296.846 9.67859 296.668 9.50099C296.49 9.3234 296.224 9.14581 295.958 9.05702C295.691 8.96822 295.336 8.87943 295.07 8.87943H294.271L292.939 15.8943Z" fill="#F96D2C"/>
<path d="M244.634 28.9472C244.722 29.2136 244.811 29.48 244.9 29.7464C244.989 30.0128 244.989 30.3679 244.989 30.6343C244.811 30.7231 244.545 30.8119 244.278 30.8119C244.012 30.9007 243.834 30.9007 243.568 30.9007C243.302 30.9007 243.124 30.9007 242.946 30.9895C242.769 31.0783 242.591 30.9895 242.502 30.9895C241.792 30.9895 241.17 30.9007 240.638 30.7231C240.105 30.5455 239.661 30.2792 239.306 29.924C238.951 29.5688 238.684 29.1248 238.507 28.6808C238.329 28.2369 238.24 27.7041 238.24 27.0825C238.24 26.1946 238.418 25.3066 238.684 24.5074C238.951 23.7083 239.306 22.9979 239.839 22.3764C240.371 21.7548 240.904 21.3108 241.614 20.9556C242.325 20.6004 243.124 20.4229 243.923 20.4229C244.367 20.4229 244.811 20.4229 245.077 20.5116C245.433 20.6004 245.788 20.6892 246.143 20.8668C246.054 21.1332 246.054 21.3996 245.877 21.666C245.788 21.9324 245.699 22.1988 245.521 22.4651C245.166 22.3764 244.9 22.2876 244.634 22.1988C244.367 22.11 244.19 22.11 243.923 22.11C243.302 22.11 242.769 22.2876 242.236 22.5539C241.792 22.8203 241.437 23.1755 241.082 23.6195C240.815 24.0635 240.549 24.5962 240.46 25.129C240.283 25.6618 240.283 26.2834 240.283 26.8161C240.283 27.6153 240.46 28.1481 240.904 28.592C241.348 28.9472 241.881 29.1248 242.68 29.1248H243.479C243.568 29.1248 243.746 29.036 243.923 29.036C244.367 29.1248 244.456 29.036 244.634 28.9472Z" fill="#F96D2C"/>
<path d="M248.096 20.6891C248.451 20.6003 248.807 20.6003 249.162 20.6003H249.695C249.872 20.6003 250.05 20.6003 250.227 20.6891L249.517 24.6849H252.625L253.335 20.6891C253.513 20.6891 253.69 20.6003 253.868 20.6003H254.933C255.111 20.6003 255.289 20.6003 255.466 20.6891L253.69 30.9894C253.335 31.0782 252.98 31.0782 252.625 31.0782C252.27 31.0782 251.914 31.0782 251.559 30.9894L252.358 26.5496H249.251L248.451 30.9894C248.096 31.0782 247.741 31.0782 247.386 31.0782C247.031 31.0782 246.675 31.0782 246.32 30.9894L248.096 20.6891Z" fill="#F96D2C"/>
<path d="M259.818 20.6891C259.996 20.6891 260.174 20.6003 260.44 20.6003H261.062C261.417 20.6003 261.861 20.6003 262.216 20.6891L263.459 30.9894C263.104 31.0782 262.749 31.0782 262.393 31.0782C262.038 31.0782 261.683 31.0782 261.328 30.9894L261.15 28.9471H258.042L257.155 30.9894C256.799 31.0782 256.444 31.0782 256.089 31.0782C255.734 31.0782 255.379 31.0782 255.023 30.9894L259.818 20.6891ZM261.062 27.1712L260.706 23.0866L258.842 27.1712H261.062Z" fill="#F96D2C"/>
<path d="M267.009 20.6891C267.364 20.6003 267.808 20.6003 268.163 20.6003H268.696C268.874 20.6003 269.051 20.6003 269.229 20.6891L270.383 26.4608L273.669 20.6891C273.846 20.6891 274.024 20.6003 274.202 20.6003H275.267C275.445 20.6003 275.622 20.6003 275.8 20.6891L274.468 30.9894C274.113 31.0782 273.758 31.0782 273.402 31.0782C273.047 31.0782 272.781 31.0782 272.426 30.9894L273.402 24.241L270.65 28.8583C270.472 28.8583 270.383 28.8583 270.206 28.9471H269.407C269.318 28.9471 269.14 28.9471 269.051 28.8583L268.163 24.241L266.743 30.9894C266.388 31.0782 266.121 31.0782 265.855 31.0782C265.588 31.0782 265.233 31.0782 264.967 30.9894L267.009 20.6891Z" fill="#F96D2C"/>
<path d="M278.287 20.6004C278.464 20.6004 278.731 20.6004 278.908 20.5116C279.086 20.5116 279.263 20.5116 279.441 20.4229H280.595C281.039 20.4229 281.395 20.4229 281.839 20.5116C282.283 20.6004 282.727 20.6892 283.082 20.9556C283.437 21.1332 283.792 21.4884 283.97 21.8436C284.236 22.1988 284.325 22.7315 284.325 23.3531C284.325 23.9747 284.236 24.5074 284.058 25.0402C283.881 25.573 283.526 26.017 283.17 26.3722C282.815 26.7273 282.283 27.0825 281.75 27.2601C281.217 27.4377 280.507 27.6153 279.796 27.6153H279.175L278.642 30.9007C278.464 30.9007 278.287 30.9895 278.109 30.9895H277.132C276.955 30.9895 276.777 30.9895 276.6 30.9007L278.287 20.6004ZM279.441 25.8394H280.063C280.329 25.8394 280.507 25.8394 280.773 25.7506C281.039 25.6618 281.217 25.573 281.395 25.3954C281.572 25.2178 281.75 24.9514 281.927 24.685C282.016 24.4186 282.105 23.9747 282.105 23.5307C282.105 23.2643 282.016 22.9979 281.927 22.8203C281.839 22.6427 281.75 22.4651 281.572 22.3764C281.395 22.2876 281.217 22.1988 281.039 22.1988C280.862 22.1988 280.684 22.11 280.507 22.11H279.974L279.441 25.8394Z" fill="#F96D2C"/>
<path d="M286.545 20.6891C286.901 20.6003 287.256 20.6003 287.611 20.6003H288.144C288.321 20.6003 288.499 20.6003 288.677 20.6891L286.901 30.9894C286.545 31.0782 286.19 31.0782 285.835 31.0782C285.48 31.0782 285.125 31.0782 284.77 30.9894L286.545 20.6891Z" fill="#F96D2C"/>
<path d="M292.939 31.0783C291.695 31.0783 290.807 30.7231 290.275 30.1016C289.742 29.48 289.387 28.5032 289.387 27.2601C289.387 26.7273 289.476 26.1946 289.564 25.6618C289.653 25.129 289.831 24.5962 290.008 24.0635C290.186 23.5307 290.452 23.0867 290.719 22.6427C290.985 22.1988 291.34 21.8436 291.784 21.4884C292.228 21.1332 292.672 20.8668 293.116 20.6892C293.649 20.5116 294.182 20.4229 294.803 20.4229C295.425 20.4229 295.958 20.5116 296.402 20.6892C296.846 20.8668 297.201 21.1332 297.467 21.4884C297.734 21.8436 298 22.1988 298.089 22.7315C298.177 23.2643 298.266 23.7971 298.266 24.3299C298.266 24.8626 298.177 25.3954 298.089 25.9282C298 26.4609 297.822 26.9937 297.645 27.4377C297.467 27.9705 297.201 28.4144 296.934 28.8584C296.668 29.3024 296.313 29.6576 295.869 30.0128C295.514 30.3679 295.07 30.6343 294.537 30.8119C294.093 30.9895 293.56 31.0783 292.939 31.0783ZM293.116 29.3912C293.471 29.3912 293.826 29.3024 294.093 29.1248C294.359 28.9472 294.626 28.7696 294.892 28.5032C295.07 28.2369 295.247 27.8817 295.425 27.5265C295.602 27.1713 295.691 26.8161 295.78 26.4609C295.869 26.1058 295.958 25.7506 295.958 25.3066C295.958 24.9514 296.046 24.5962 296.046 24.3299C296.046 22.9979 295.514 22.2876 294.537 22.2876C294.182 22.2876 293.827 22.3764 293.56 22.5539C293.294 22.7315 293.027 22.9091 292.761 23.1755C292.495 23.4419 292.317 23.7971 292.228 24.1523C292.139 24.5074 291.962 24.8626 291.873 25.2178C291.784 25.573 291.695 25.9282 291.695 26.3722C291.695 26.7273 291.607 27.0825 291.607 27.4377C291.518 28.6808 292.051 29.3912 293.116 29.3912Z" fill="#F96D2C"/>
<path d="M300.841 20.6891C301.019 20.6891 301.196 20.6003 301.285 20.6003H301.729C301.996 20.6003 302.262 20.6003 302.617 20.6891L305.103 27.26L306.258 20.6891C306.613 20.6003 306.968 20.6003 307.235 20.6003H307.679C307.856 20.6003 307.945 20.6003 308.123 20.6891L306.347 30.9894C305.991 31.0782 305.725 31.0782 305.459 31.0782C305.192 31.0782 304.926 31.0782 304.659 30.9894L302.084 24.5073L300.93 30.9894C300.752 30.9894 300.575 31.0782 300.397 31.0782H299.865C299.598 31.0782 299.243 31.0782 298.977 30.9894L300.841 20.6891Z" fill="#F96D2C"/>
<path d="M308.477 28.8585C308.832 29.0361 309.187 29.1249 309.543 29.2137C309.898 29.3025 310.253 29.3913 310.608 29.3913C310.875 29.3913 311.141 29.3913 311.407 29.3025C311.674 29.2137 311.851 29.1249 312.029 29.0361C312.206 28.9473 312.384 28.7697 312.473 28.5921C312.562 28.4145 312.65 28.1481 312.65 27.8817C312.65 27.7042 312.65 27.5266 312.562 27.349C312.473 27.1714 312.384 27.0826 312.206 26.9938C312.029 26.905 311.94 26.7274 311.762 26.6386C311.585 26.5498 311.407 26.461 311.23 26.2834C310.608 25.9282 310.164 25.5731 309.809 25.1291C309.454 24.6851 309.276 24.3299 309.276 23.7972C309.276 23.2644 309.365 22.8204 309.543 22.3764C309.72 21.9324 309.987 21.6661 310.342 21.3109C310.697 21.0445 311.052 20.8669 311.585 20.6893C312.029 20.5117 312.562 20.5117 313.183 20.5117C313.716 20.5117 314.16 20.5117 314.515 20.6005C314.87 20.6893 315.314 20.7781 315.758 20.9557C315.758 21.2221 315.669 21.4885 315.581 21.7549C315.492 22.0212 315.314 22.2876 315.137 22.554C314.87 22.4652 314.604 22.2876 314.249 22.1988C313.894 22.11 313.538 22.11 313.094 22.11H312.562C312.384 22.11 312.206 22.1988 312.029 22.2876C311.851 22.3764 311.762 22.4652 311.674 22.6428C311.585 22.8204 311.496 22.998 311.496 23.1756C311.496 23.5308 311.585 23.7972 311.851 23.9747C312.118 24.1523 312.384 24.4187 312.739 24.5963C313.094 24.7739 313.361 24.9515 313.627 25.1291C313.894 25.3067 314.16 25.4843 314.338 25.7507C314.515 25.9282 314.693 26.1946 314.87 26.461C314.959 26.7274 315.048 26.9938 315.048 27.349C315.048 27.793 314.959 28.3257 314.782 28.7697C314.604 29.2137 314.338 29.5689 313.982 29.924C313.627 30.2792 313.183 30.5456 312.562 30.7232C312.029 30.9008 311.318 30.9896 310.519 30.9896C309.631 30.9896 308.743 30.812 307.855 30.4568C307.855 30.1904 307.944 29.924 308.033 29.5689C308.299 29.4801 308.388 29.1249 308.477 28.8585Z" fill="#F96D2C"/>
<path d="M228.916 7.37012V30.9897" stroke="#A5A5A5" stroke-width="0.443978" stroke-miterlimit="10"/>
</g>
<defs>
<clipPath id="clip0_518_3298">
<rect width="110.994" height="33.7423" fill="white" transform="translate(0 2.21997)"/>
</clipPath>
<clipPath id="clip1_518_3298">
<rect width="161.608" height="38.1821" fill="white" transform="translate(155.393)"/>
</clipPath>
</defs>
</svg>
