<svg xmlns="http://www.w3.org/2000/svg" xmlns:xlink="http://www.w3.org/1999/xlink" viewBox="0 0 1068.24 372.41">
  <defs>
    <style>
      .cls-1, .cls-2 {
        opacity: 0.7;
      }

      .cls-1 {
        fill: url(#Degradado_sin_nombre_3);
      }

      .cls-2 {
        fill: url(#Degradado_sin_nombre_3-2);
      }

      .cls-3 {
        fill: #fff;
      }

      .cls-4, .cls-5 {
        opacity: 0.86;
      }

      .cls-4 {
        fill: url(#Degradado_sin_nombre_3-3);
      }

      .cls-5 {
        fill: url(#Degradado_sin_nombre_3-4);
      }
    </style>
    <linearGradient id="Degradado_sin_nombre_3" data-name="Degradado sin nombre 3" x1="15951.14" y1="17778.98" x2="16143.24" y2="17594.92" gradientTransform="translate(8114.47 22972.81) rotate(-156.16)" gradientUnits="userSpaceOnUse">
      <stop offset="0" stop-color="aqua"/>
      <stop offset="1" stop-color="#b700ff"/>
    </linearGradient>
    <linearGradient id="Degradado_sin_nombre_3-2" x1="9696.59" y1="414.47" x2="9888.7" y2="230.42" gradientTransform="translate(-9316 -225.23) rotate(-0.06)" xlink:href="#Degradado_sin_nombre_3"/>
    <linearGradient id="Degradado_sin_nombre_3-3" x1="4353.72" y1="2204.39" x2="4640.12" y2="2108.31" gradientTransform="matrix(-1, 0, 0, 1, 5033.73, -1835.9)" xlink:href="#Degradado_sin_nombre_3"/>
    <linearGradient id="Degradado_sin_nombre_3-4" x1="5624.71" y1="20617.16" x2="5911.11" y2="20521.07" gradientTransform="matrix(0.91, -0.4, -0.4, -0.91, 3552.36, 21207.76)" xlink:href="#Degradado_sin_nombre_3"/>
  </defs>
  <title>MAIN LOGO_White</title>
  <g id="Capa_2" data-name="Capa 2">
    <g id="Capa_4" data-name="Capa 4">
      <g id="MAIN_LOGO_White" data-name="MAIN LOGO_White">
        <g>
          <path class="cls-1" d="M652.64,240.27c-79.23,18.5-156.6,80.77-241.33,67,57.77,67.64,159.9,85.13,237,40.55,25.55-14.77,63.15-42.43,65.29-75.29C715.84,237.92,678.73,234.18,652.64,240.27Z"/>
          <path class="cls-2" d="M442.77,176.88c64.94-49,110.44-137.29,193.49-159C556-20.58,455.59,4.82,403.17,76.8c-17.37,23.86-40.53,64.38-29.18,95.29C385.94,204.64,421.38,193,442.77,176.88Z"/>
        </g>
        <path class="cls-3" d="M142.2,258.31V163.12a3.66,3.66,0,0,0-6.67-2.08L92.38,223.38a3.68,3.68,0,0,1-3,1.57H75.72a3.65,3.65,0,0,1-3-1.58l-42.9-62.28a3.66,3.66,0,0,0-6.67,2.08v95.14A3.66,3.66,0,0,1,19.48,262H3.66A3.66,3.66,0,0,1,0,258.31V118a3.66,3.66,0,0,1,3.66-3.66H23.54a3.65,3.65,0,0,1,3,1.58l53,76.61a3.65,3.65,0,0,0,6,0l53-76.61a3.64,3.64,0,0,1,3-1.58h20.14a3.66,3.66,0,0,1,3.66,3.66V258.31a3.66,3.66,0,0,1-3.66,3.66H145.86A3.66,3.66,0,0,1,142.2,258.31Zm77.63-50.85a1.83,1.83,0,0,0-1.86,2,24.48,24.48,0,0,0,4.38,10.89,49,49,0,0,0,10.41,11.32C240,237.28,252.4,240,262,240q21.38,0,35.35-19.31a3.69,3.69,0,0,1,4.86-1.08l13.31,7.88a3.68,3.68,0,0,1,1.2,5.2,71.53,71.53,0,0,1-22.58,21.7A61.59,61.59,0,0,1,262,263.12c-8.75,0-21.1-1.53-29-4.88a65.43,65.43,0,0,1-34.84-34.84,63.28,63.28,0,0,1-5-24.94,65.19,65.19,0,0,1,19-46,60.33,60.33,0,0,1,20.71-13.89,66.84,66.84,0,0,1,50.14,0,60.34,60.34,0,0,1,20.69,13.89c12.69,13,19,35,19,52.1,0,2.11-.12-2.54-.36-.27a3.62,3.62,0,0,1-3.63,3.19Zm18.33-48.09a40.12,40.12,0,0,0-14.78,12.22,27.16,27.16,0,0,0-5.45,14.12,1.86,1.86,0,0,0,1.87,1.95h76.34a1.86,1.86,0,0,0,1.86-1.95,27.16,27.16,0,0,0-5.45-14.12,40.07,40.07,0,0,0-14.79-12.22,44.65,44.65,0,0,0-39.6,0Zm362.52,98.74a67.09,67.09,0,0,1-35-35,61.84,61.84,0,0,1-5.14-24.94,64.36,64.36,0,0,1,5.14-25.46,66,66,0,0,1,14.15-21.08,65,65,0,0,1,20.82-14,63.28,63.28,0,0,1,24.94-5,65.86,65.86,0,0,1,25.46,5,64.19,64.19,0,0,1,35.1,35.1,65.68,65.68,0,0,1,5,25.46,63.1,63.1,0,0,1-5,24.94,65,65,0,0,1-14,20.83,65.78,65.78,0,0,1-21.08,14.14,64.36,64.36,0,0,1-25.46,5.14A61.84,61.84,0,0,1,600.68,258.11Zm-4.62-90.26a42.75,42.75,0,0,0-9.26,13.89,42,42,0,0,0-3.35,16.46,40.11,40.11,0,0,0,3.35,16.2A43.5,43.5,0,0,0,596.06,228a44,44,0,0,0,13.49,9.25,39.26,39.26,0,0,0,16.07,3.35,42,42,0,0,0,16.46-3.35A40,40,0,0,0,655.71,228a46.18,46.18,0,0,0,9-13.63,40.44,40.44,0,0,0,3.34-16.2,42.34,42.34,0,0,0-3.34-16.46,45.31,45.31,0,0,0-9-13.89,38.75,38.75,0,0,0-13.5-9.12,43.39,43.39,0,0,0-16.59-3.22A40.34,40.34,0,0,0,596.06,167.85Zm176.42-10.24a1.84,1.84,0,0,1-1.66.09,26.05,26.05,0,0,0-10.2-2.44,22.16,22.16,0,0,0-17,7.2,25.24,25.24,0,0,0-7.2,17.74v78.11A3.65,3.65,0,0,1,732.8,262H718a3.66,3.66,0,0,1-3.66-3.66V180.2a47.85,47.85,0,0,1,7.07-25.46,48.51,48.51,0,0,1,19.42-18,45.63,45.63,0,0,1,19.79-4.38,43.14,43.14,0,0,1,16.2,3.09A54.14,54.14,0,0,1,787,141a4.88,4.88,0,0,1-.31,8.21ZM805,118.35a15,15,0,1,1,10.61,4.41A14.45,14.45,0,0,1,805,118.35Zm.06,140V137.06a3.66,3.66,0,0,1,3.66-3.66H823a3.66,3.66,0,0,1,3.66,3.66V258.31A3.66,3.66,0,0,1,823,262H808.71A3.66,3.66,0,0,1,805.05,258.31Zm180.26,51A65.82,65.82,0,0,1,965.85,291,3.65,3.65,0,0,1,967,285.7l13.7-7.91a3.69,3.69,0,0,1,4.82,1.11,38.19,38.19,0,0,0,11,10.2,30.34,30.34,0,0,0,15.94,4.5,32.39,32.39,0,0,0,23.66-10,31.68,31.68,0,0,0,7.07-10.8,35.31,35.31,0,0,0,2.44-13.11v-9a43.19,43.19,0,0,1-14.91,9.91,47.43,47.43,0,0,1-18.26,3.72A54.19,54.19,0,0,1,991.1,260a55.21,55.21,0,0,1-17.74-12A54.63,54.63,0,0,1,961,230.21a53.6,53.6,0,0,1-4.37-21.47V137.06a3.66,3.66,0,0,1,3.66-3.66h15.31a3.65,3.65,0,0,1,3.65,3.66v68.3c0,5.88,2.16,15,5.3,20a34.09,34.09,0,0,0,11.29,11.15,31.17,31.17,0,0,0,16.58,4.63,32.64,32.64,0,0,0,16.72-4.5,32.11,32.11,0,0,0,12.08-12.34,34.59,34.59,0,0,0,4.37-17.1V137.06a3.66,3.66,0,0,1,3.66-3.66h15.31a3.66,3.66,0,0,1,3.66,3.66v122.6a58.65,58.65,0,0,1-4.24,22.11A53.77,53.77,0,0,1,1052,300a57.7,57.7,0,0,1-18.13,12.35,53.78,53.78,0,0,1-21.47,4.37A52,52,0,0,1,985.31,309.28ZM548.19,239.86H539.1q-10.8.51-18.13-5.4c-4.88-4-7.8-8.85-7.84-19.85l-.37-58.07h21.93a3.65,3.65,0,0,0,3.66-3.65V137.06a3.66,3.66,0,0,0-3.66-3.66H512.61L512.38,99a3.65,3.65,0,0,0-3.66-3.63H494.43a3.65,3.65,0,0,0-3.66,3.66l0,18.17a16.15,16.15,0,0,1-16.14,16.17h-6.15a3.66,3.66,0,0,0-3.66,3.66v15.82a3.66,3.66,0,0,0,3.66,3.66h22.37l.13,62.75a42,42,0,0,0,7.07,22.11,44.4,44.4,0,0,0,17.36,15.17A52.12,52.12,0,0,0,539.1,262h9.09a3.66,3.66,0,0,0,3.66-3.66V243.52A3.66,3.66,0,0,0,548.19,239.86Zm385.44,0h-9.09q-10.8.51-18.13-5.4c-4.88-4-7.8-8.85-7.84-19.85l-.38-58.07h21.94a3.65,3.65,0,0,0,3.66-3.65V137.06a3.66,3.66,0,0,0-3.66-3.66H898L897.82,99a3.66,3.66,0,0,0-3.66-3.63h-14.3a3.66,3.66,0,0,0-3.66,3.66l0,18.17A16.14,16.14,0,0,1,860.1,133.4H854a3.66,3.66,0,0,0-3.66,3.66v15.82a3.66,3.66,0,0,0,3.66,3.66h22.37l.13,62.75a42,42,0,0,0,7.07,22.11,44.54,44.54,0,0,0,17.36,15.17,52.14,52.14,0,0,0,23.66,5.4h9.09a3.65,3.65,0,0,0,3.65-3.66V243.52A3.65,3.65,0,0,0,933.63,239.86ZM448.79,167a54.65,54.65,0,0,0-6.47-11.33,48.2,48.2,0,0,0-5-5.81,54.22,54.22,0,0,0-17.37-11.75A53,53,0,0,0,399.3,134a37.88,37.88,0,0,0-16.44,4,40,40,0,0,0-13.48,10.25v-7.21a3.86,3.86,0,0,0-3.84-3.84H349.76a3.83,3.83,0,0,0-3.84,3.84V258.33a1.1,1.1,0,0,0,.1.56,3.3,3.3,0,0,0,.18.75,4.21,4.21,0,0,0,2.06,2.06,3.85,3.85,0,0,0,.7.19,1.49,1.49,0,0,0,.62.09h15.3a3.66,3.66,0,0,0,3.66-3.65V195a34.63,34.63,0,0,1,.89-8,27,27,0,0,1,2.38-10.3,30.53,30.53,0,0,1,6.47-9.6,28.76,28.76,0,0,1,21-8.89,28.39,28.39,0,0,1,20.64,8.33,2.24,2.24,0,0,1,.38.33,28.58,28.58,0,0,1,8.89,21v70.22a3.86,3.86,0,0,0,3.84,3.84h16.06a3.85,3.85,0,0,0,3.84-3.84V187.92A53.13,53.13,0,0,0,448.79,167ZM346.2,259.64a3.25,3.25,0,0,0,2.06,2.06A4.21,4.21,0,0,1,346.2,259.64Z"/>
        <g>
          <path class="cls-4" d="M457,240c79.17,18.73,156.31,81.18,241.08,67.63-58,67.49-160.09,84.72-237,39.93-25.51-14.85-63-42.62-65.08-75.48C393.8,237.46,430.92,233.83,457,240Z"/>
          <path class="cls-5" d="M621.75,97.87c-80,15-175.8-10.89-247.81,35.85C399.58,48.54,486-8.6,574.48,1.18c29.33,3.23,74.88,13.42,90.08,42.63C680.55,74.57,648.09,92.94,621.75,97.87Z"/>
        </g>
      </g>
    </g>
  </g>
</svg>
