<svg width="24" height="25" viewBox="0 0 24 25" fill="none" xmlns="http://www.w3.org/2000/svg">
<path d="M18.5626 18.5167L18.1099 18.9693C17.86 19.2192 17.4547 19.2192 17.2047 18.9693L12 13.7645L6.7952 18.9692C6.54529 19.2192 6.14002 19.2192 5.89006 18.9692L5.43747 18.5166C5.18751 18.2667 5.18751 17.8615 5.43747 17.6115L10.6423 12.4067L5.43747 7.20194C5.18751 6.95203 5.18751 6.54676 5.43747 6.2968L5.89005 5.84422C6.14001 5.59426 6.54529 5.59426 6.7952 5.84422L12 11.049L17.2047 5.84421C17.4547 5.59425 17.86 5.59425 18.1099 5.84421L18.5626 6.29679C18.8125 6.54675 18.8125 6.95203 18.5626 7.20194L13.3578 12.4067L18.5626 17.6115C18.8125 17.8615 18.8125 18.2667 18.5626 18.5167Z" fill="white"/>
</svg>
