<svg width="14" height="25" viewBox="0 0 14 25" fill="none" xmlns="http://www.w3.org/2000/svg">
<path fill-rule="evenodd" clip-rule="evenodd" d="M9.03471 0.879344C8.23014 0.99457 7.73563 1.12911 7.18987 1.38127C5.763 2.04056 4.82076 3.28409 4.46687 4.97507C4.35048 5.53114 4.30027 6.47357 4.30013 8.10417L4.30003 9.61599H2.47179H0.643555V11.7724V13.9288H2.47179H4.30003V19.39V24.8513H6.52674H8.75344V19.39V13.9288H10.5808H12.4081L12.431 13.8233C12.4436 13.7652 12.561 12.874 12.692 11.8427C12.8229 10.8114 12.9423 9.88849 12.9572 9.79178L12.9845 9.61599H10.8654H8.74631L8.7646 7.89322C8.78227 6.22587 8.78639 6.16071 8.89299 5.86758C8.97025 5.65513 9.06808 5.49973 9.22091 5.34695C9.64051 4.9273 10.1292 4.83655 11.9763 4.83523L13.1131 4.83444V2.91891V1.00338L12.7732 0.972818C11.6063 0.867999 9.48464 0.814933 9.03471 0.879344Z" fill="white"/>
</svg>
