<svg width="7" height="14" viewBox="0 0 7 14" fill="none" xmlns="http://www.w3.org/2000/svg">
<path fill-rule="evenodd" clip-rule="evenodd" d="M4.54521 0.814497C4.1094 0.876911 3.84154 0.949787 3.54592 1.08637C2.77303 1.44349 2.26265 2.11707 2.07096 3.03302C2.00792 3.33422 1.98072 3.8447 1.98064 4.72795L1.98059 5.54684H0.990297H0V6.71489V7.88293H0.990297H1.98059V10.8411V13.7993H3.18672H4.39285V10.8411V7.88293H5.38267H6.37248L6.38487 7.8258C6.39168 7.79436 6.45529 7.3116 6.52623 6.75297C6.59715 6.19435 6.6618 5.69445 6.6699 5.64207L6.68465 5.54684H5.53682H4.38899L4.3989 4.61368C4.40847 3.71053 4.4107 3.67524 4.46845 3.51646C4.51029 3.40138 4.56329 3.3172 4.64607 3.23445C4.87335 3.00714 5.13807 2.95798 6.13857 2.95727L6.75433 2.95684V1.91926V0.881685L6.57024 0.865129C5.93815 0.808352 4.78892 0.779608 4.54521 0.814497Z" fill="#535965"/>
</svg>
