<svg width="14" height="14" viewBox="0 0 14 14" fill="none" xmlns="http://www.w3.org/2000/svg">
<path fill-rule="evenodd" clip-rule="evenodd" d="M3.67379 0.806717C3.64582 0.812796 3.53137 0.835279 3.41946 0.856668C2.32004 1.0668 1.35012 1.92107 0.982636 3.00295C0.816278 3.49271 0.825281 3.24713 0.825281 7.30115C0.825281 10.7589 0.828028 10.989 0.87157 11.1924C1.14978 12.4918 2.13277 13.4748 3.43218 13.753C3.63557 13.7966 3.86569 13.7993 7.32345 13.7993C10.7812 13.7993 11.0113 13.7966 11.2147 13.753C12.5141 13.4748 13.4971 12.4918 13.7753 11.1924C13.8189 10.989 13.8216 10.7589 13.8216 7.30115C13.8216 3.84338 13.8189 3.61327 13.7753 3.40988C13.4993 2.12042 12.5514 1.16344 11.2402 0.85031C11.0619 0.80776 10.8097 0.804479 7.38703 0.800206C5.37273 0.797714 3.70177 0.800639 3.67379 0.806717ZM11.1951 3.04972C11.59 3.24334 11.7605 3.72041 11.5738 4.10929C11.4271 4.41489 11.1865 4.56607 10.8459 4.5667C10.6745 4.56703 10.6198 4.55597 10.4985 4.49638C10.3325 4.41484 10.1896 4.26809 10.1122 4.09967C10.0346 3.93057 10.0366 3.62273 10.1164 3.44803C10.195 3.27592 10.332 3.13909 10.5153 3.04951C10.652 2.98275 10.6891 2.97578 10.8714 2.98285C11.0207 2.98865 11.1068 3.00643 11.1951 3.04972ZM7.98471 4.67884C8.97859 4.94929 9.67528 5.64916 9.9495 6.6526C9.99683 6.82573 10.0051 6.92242 10.0051 7.30115C10.0051 7.78766 9.9745 7.95834 9.81859 8.34146C9.56569 8.96292 8.98523 9.54338 8.36377 9.79629C7.98064 9.9522 7.80996 9.98282 7.32345 9.98282C6.94472 9.98282 6.84803 9.97453 6.6749 9.9272C5.66612 9.65153 4.97307 8.95847 4.6974 7.94969C4.65007 7.77657 4.64178 7.67987 4.64178 7.30115C4.64178 6.92242 4.65007 6.82573 4.6974 6.6526C4.9717 5.64891 5.69003 4.92859 6.66219 4.6824C6.94315 4.61124 6.97008 4.6089 7.39975 4.61831C7.69605 4.62479 7.84135 4.63982 7.98471 4.67884Z" fill="#535965"/>
</svg>
