<svg width="25" height="25" viewBox="0 0 25 25" fill="none" xmlns="http://www.w3.org/2000/svg">
<path fill-rule="evenodd" clip-rule="evenodd" d="M5.37223 0.864981C5.32058 0.876203 5.10929 0.91771 4.9027 0.957198C2.87299 1.34513 1.08237 2.92225 0.403941 4.91956C0.0968183 5.82374 0.11344 5.37036 0.11344 12.8547C0.11344 19.2383 0.118511 19.6631 0.198895 20.0386C0.71252 22.4375 2.52727 24.2522 4.92617 24.7659C5.30166 24.8462 5.7265 24.8513 12.1101 24.8513C18.4936 24.8513 18.9185 24.8462 19.2939 24.7659C21.6928 24.2522 23.5076 22.4375 24.0212 20.0386C24.1016 19.6631 24.1067 19.2383 24.1067 12.8547C24.1067 6.47114 24.1016 6.0463 24.0212 5.67081C23.5115 3.29027 21.7616 1.52355 19.3409 0.94546C19.0118 0.866906 18.5462 0.860849 12.2274 0.852961C8.50873 0.84836 5.42388 0.853759 5.37223 0.864981ZM19.2577 5.0059C19.9867 5.36336 20.3015 6.24412 19.9568 6.96203C19.686 7.52623 19.2418 7.80532 18.6131 7.80649C18.2966 7.8071 18.1957 7.78668 17.9717 7.67667C17.6652 7.52613 17.4013 7.25521 17.2586 6.94429C17.1153 6.63209 17.1189 6.06377 17.2662 5.74124C17.4114 5.42351 17.6643 5.1709 18.0027 5.00553C18.255 4.88228 18.3237 4.86941 18.6601 4.88246C18.9358 4.89317 19.0948 4.92599 19.2577 5.0059ZM13.3309 8.01351C15.1657 8.51281 16.4519 9.80488 16.9581 11.6574C17.0455 11.977 17.0608 12.1555 17.0608 12.8547C17.0608 13.7529 17.0043 14.068 16.7165 14.7753C16.2496 15.9226 15.178 16.9942 14.0306 17.4611C13.3233 17.7489 13.0082 17.8055 12.1101 17.8055C11.4109 17.8055 11.2324 17.7902 10.9127 17.7028C9.05038 17.1939 7.7709 15.9144 7.26197 14.052C7.17459 13.7324 7.15928 13.5539 7.15928 12.8547C7.15928 12.1555 7.17459 11.977 7.26197 11.6574C7.76836 9.80441 9.09452 8.47459 10.8893 8.02008C11.408 7.88871 11.4577 7.88439 12.2509 7.90176C12.7979 7.91373 13.0662 7.94148 13.3309 8.01351Z" fill="white"/>
</svg>
