<svg width="14" height="14" viewBox="0 0 14 14" fill="none" xmlns="http://www.w3.org/2000/svg">
<g clip-path="url(#clip0_2337_7311)">
<path d="M11.7956 0.799316H1.33927C0.620396 0.799316 0.0322266 1.38749 0.0322266 2.10636V12.5627C0.0322266 13.2816 0.620396 13.8697 1.33927 13.8697H11.7956C12.5145 13.8697 13.1026 13.2816 13.1026 12.5627V2.10636C13.1026 1.38749 12.5145 0.799316 11.7956 0.799316ZM3.95335 11.9092H1.99279V6.02749H3.95335V11.9092ZM2.97307 4.9165C2.31955 4.9165 1.79673 4.39368 1.79673 3.74016C1.79673 3.08664 2.31955 2.56382 2.97307 2.56382C3.62659 2.56382 4.14941 3.08664 4.14941 3.74016C4.14941 4.39368 3.62659 4.9165 2.97307 4.9165ZM11.1421 11.9092H9.18152V8.44551C9.18152 7.9227 8.72406 7.46523 8.20124 7.46523C7.67842 7.46523 7.22096 7.9227 7.22096 8.44551V11.9092H5.2604V6.02749H7.22096V6.81171C7.54772 6.28889 8.26659 5.89678 8.85476 5.89678C10.0965 5.89678 11.1421 6.94242 11.1421 8.18411V11.9092Z" fill="#535965"/>
</g>
<defs>
<clipPath id="clip0_2337_7311">
<rect width="13.0704" height="13.0704" fill="white" transform="translate(0.0322266 0.799316)"/>
</clipPath>
</defs>
</svg>
