<svg width="25" height="25" viewBox="0 0 25 25" fill="none" xmlns="http://www.w3.org/2000/svg">
<g clip-path="url(#clip0_2375_5835)">
<path d="M21.7064 0.851318H2.50645C1.18645 0.851318 0.106445 1.93132 0.106445 3.25132V22.4513C0.106445 23.7713 1.18645 24.8513 2.50645 24.8513H21.7064C23.0264 24.8513 24.1064 23.7713 24.1064 22.4513V3.25132C24.1064 1.93132 23.0264 0.851318 21.7064 0.851318ZM7.30645 21.2513H3.70645V10.4513H7.30645V21.2513ZM5.50645 8.41132C4.30645 8.41132 3.34645 7.45132 3.34645 6.25132C3.34645 5.05132 4.30645 4.09132 5.50645 4.09132C6.70645 4.09132 7.66645 5.05132 7.66645 6.25132C7.66645 7.45132 6.70645 8.41132 5.50645 8.41132ZM20.5064 21.2513H16.9064V14.8913C16.9064 13.9313 16.0664 13.0913 15.1064 13.0913C14.1464 13.0913 13.3064 13.9313 13.3064 14.8913V21.2513H9.70645V10.4513H13.3064V11.8913C13.9064 10.9313 15.2264 10.2113 16.3064 10.2113C18.5864 10.2113 20.5064 12.1313 20.5064 14.4113V21.2513Z" fill="white"/>
</g>
<defs>
<clipPath id="clip0_2375_5835">
<rect width="24" height="24" fill="white" transform="translate(0.106445 0.851318)"/>
</clipPath>
</defs>
</svg>
