<svg width="14" height="14" viewBox="0 0 14 14" fill="none" xmlns="http://www.w3.org/2000/svg">
<path fill-rule="evenodd" clip-rule="evenodd" d="M1.39395 0.861106C1.13083 0.969436 0.944976 1.15991 0.847093 1.42156L0.793945 1.56357L0.800478 7.33832L0.806984 13.113L0.874595 13.2573C0.969275 13.4593 1.12547 13.6188 1.32438 13.7167L1.49219 13.7993H7.30115H13.1101L13.2779 13.7167C13.4768 13.6188 13.633 13.4593 13.7277 13.2573L13.7953 13.113V7.30462V1.49619L13.7127 1.32838C13.6148 1.12946 13.4553 0.973274 13.2533 0.878594L13.109 0.810983L7.32657 0.805137L1.54409 0.799316L1.39395 0.861106ZM8.69144 3.80689C8.75351 4.26202 8.90502 4.56209 9.24559 4.90432C9.4397 5.09937 9.51092 5.15201 9.71581 5.25187C9.96785 5.37469 10.2419 5.44967 10.4389 5.44967H10.5546V6.04698V6.64429L10.4211 6.64419C9.95133 6.64384 9.31503 6.43984 8.87843 6.14959C8.78304 6.08618 8.6985 6.03428 8.6906 6.03428C8.68269 6.03428 8.6723 6.73486 8.66749 7.5911C8.65898 9.11124 8.65745 9.15209 8.60293 9.32492C8.47968 9.71559 8.31033 10.0053 8.03981 10.2882C7.32118 11.0397 6.18675 11.2226 5.27223 10.7343C4.68765 10.4222 4.28521 9.90787 4.10879 9.24745C4.07288 9.11307 4.06218 8.98486 4.06332 8.70311C4.06464 8.37911 4.07303 8.30756 4.13263 8.11134C4.37186 7.32406 4.9662 6.73282 5.73912 6.51332C5.90721 6.46558 6.00565 6.4557 6.32258 6.45478L6.70384 6.45366L6.71065 7.0602L6.71749 7.66674L6.65877 7.652C6.06617 7.50328 5.46301 7.85224 5.30524 8.43508C5.14702 9.01963 5.50299 9.62843 6.0928 9.78203C6.6997 9.94008 7.31938 9.55437 7.45048 8.93698C7.47061 8.8422 7.47907 8.03077 7.47907 6.19824V3.5942H8.07074H8.66244L8.69144 3.80689Z" fill="#535965"/>
</svg>
