<svg width="25" height="25" viewBox="0 0 25 25" fill="none" xmlns="http://www.w3.org/2000/svg">
<path fill-rule="evenodd" clip-rule="evenodd" d="M1.46122 0.965392C0.975454 1.16538 0.632341 1.51704 0.451635 2.00008L0.353516 2.26225L0.365575 12.9233L0.377588 23.5844L0.502407 23.8507C0.677201 24.2235 0.965553 24.518 1.33278 24.6988L1.64258 24.8513H12.3668H23.0911L23.4009 24.6988C23.7681 24.518 24.0564 24.2235 24.2312 23.8507L24.356 23.5844V12.8611V2.13785L24.2035 1.82805C24.0227 1.46082 23.7282 1.17247 23.3554 0.997676L23.0891 0.872857L12.4137 0.862064L1.7384 0.851318L1.46122 0.965392ZM14.9335 6.40376C15.0481 7.24399 15.3278 7.79799 15.9565 8.42978C16.3149 8.78988 16.4464 8.88706 16.8247 9.07143C17.29 9.29817 17.7959 9.43659 18.1595 9.43659H18.3732V10.5393V11.642L18.1268 11.6419C17.2595 11.6412 16.0847 11.2646 15.2787 10.7288C15.1026 10.6117 14.9465 10.5159 14.9319 10.5159C14.9174 10.5159 14.8982 11.8092 14.8893 13.39C14.8736 16.1964 14.8708 16.2718 14.7701 16.5909C14.5426 17.3121 14.2299 17.847 13.7305 18.3692C12.4038 19.7566 10.3095 20.0942 8.62111 19.1928C7.54189 18.6166 6.79893 17.6671 6.47323 16.4479C6.40693 16.1998 6.38717 15.9631 6.38928 15.4429C6.39172 14.8448 6.40721 14.7127 6.51725 14.3504C6.9589 12.897 8.05614 11.8055 9.48307 11.4002C9.79338 11.3121 9.97512 11.2939 10.5602 11.2922L11.2641 11.2901L11.2767 12.4099L11.2893 13.5296L11.1809 13.5024C10.0868 13.2279 8.97333 13.8721 8.68207 14.9481C8.38996 16.0273 9.04714 17.1512 10.136 17.4348C11.2564 17.7266 12.4005 17.0145 12.6425 15.8747C12.6797 15.6997 12.6953 14.2017 12.6953 10.8186V6.0111H13.7876H14.88L14.9335 6.40376Z" fill="white"/>
</svg>
