<svg width="25" height="25" viewBox="0 0 25 25" fill="none" xmlns="http://www.w3.org/2000/svg">
<g clip-path="url(#clip0_2375_5832)">
<path d="M24.1064 4.21122C23.2034 4.6048 22.2484 4.86628 21.2708 4.98762C22.3009 4.37673 23.0712 3.40923 23.4356 2.26842C22.4711 2.84018 21.4159 3.24279 20.3156 3.45882C19.6411 2.73849 18.7655 2.23771 17.8027 2.02155C16.8398 1.80539 15.8342 1.88386 14.9165 2.24674C13.9988 2.60962 13.2115 3.24015 12.6568 4.05637C12.1022 4.8726 11.8059 5.83678 11.8064 6.82362C11.8064 7.21362 11.8388 7.58922 11.9204 7.94562C7.82965 7.74642 4.21045 5.78562 1.77925 2.80002C1.33845 3.55425 1.10496 4.41163 1.10245 5.28522C1.10245 6.98922 1.98085 8.50002 3.28765 9.37482C2.50949 9.35401 1.74773 9.14659 1.06645 8.77002V8.82402C1.06801 9.95999 1.46082 11.0608 2.17877 11.9411C2.89672 12.8214 3.896 13.4276 5.00845 13.6576C4.58753 13.7686 4.15373 13.8231 3.71845 13.8196C3.40405 13.8196 3.08605 13.8016 2.78725 13.7356C3.42445 15.6844 5.23285 17.1172 7.38445 17.1628C5.6429 18.5254 3.49486 19.2647 1.28365 19.2628C0.880445 19.2628 0.494045 19.2436 0.106445 19.1944C2.35631 20.6441 4.97797 21.411 7.65445 21.4024C16.7084 21.4024 21.6584 13.9024 21.6584 7.40082C21.6584 7.18482 21.6512 6.97362 21.6404 6.76482C22.6107 6.07092 23.4464 5.20478 24.1064 4.21122Z" fill="white"/>
</g>
<defs>
<clipPath id="clip0_2375_5832">
<rect width="24" height="24" fill="white" transform="translate(0.106445 0.851318)"/>
</clipPath>
</defs>
</svg>
