<svg width="14" height="14" viewBox="0 0 14 14" fill="none" xmlns="http://www.w3.org/2000/svg">
<g clip-path="url(#clip0_2337_7314)">
<path d="M13.962 2.62913C13.4702 2.84347 12.9501 2.98588 12.4178 3.05196C12.9787 2.71927 13.3982 2.19236 13.5967 1.57108C13.0714 1.88246 12.4968 2.10172 11.8976 2.21937C11.5302 1.82708 11.0534 1.55436 10.529 1.43664C10.0046 1.31892 9.45694 1.36165 8.95716 1.55927C8.45738 1.7569 8.02861 2.10028 7.72655 2.5448C7.4245 2.98932 7.26314 3.51441 7.26343 4.05184C7.26343 4.26424 7.28108 4.46879 7.32552 4.66289C5.09766 4.5544 3.12664 3.48655 1.80261 1.86059C1.56255 2.27134 1.43539 2.73827 1.43402 3.21403C1.43402 4.14203 1.9124 4.96481 2.62409 5.44123C2.2003 5.4299 1.78544 5.31694 1.41442 5.11186V5.14126C1.41527 5.75992 1.6292 6.3594 2.02019 6.83883C2.41119 7.31826 2.95539 7.64839 3.56124 7.77365C3.33201 7.83408 3.09575 7.86375 2.8587 7.86187C2.68748 7.86187 2.51429 7.85207 2.35157 7.81613C2.69859 8.87744 3.68344 9.65775 4.85521 9.68258C3.90676 10.4246 2.73694 10.8273 1.53271 10.8262C1.31312 10.8262 1.10269 10.8158 0.891602 10.789C2.11688 11.5785 3.54464 11.9962 5.00225 11.9915C9.93307 11.9915 12.6288 7.90697 12.6288 4.36619C12.6288 4.24855 12.6249 4.13353 12.619 4.01982C13.1474 3.64192 13.6025 3.17023 13.962 2.62913Z" fill="#535965"/>
</g>
<defs>
<clipPath id="clip0_2337_7314">
<rect width="13.0704" height="13.0704" fill="white" transform="translate(0.891602 0.799316)"/>
</clipPath>
</defs>
</svg>
