<svg width="35" height="25" viewBox="0 0 35 25" fill="none" xmlns="http://www.w3.org/2000/svg">
<path fill-rule="evenodd" clip-rule="evenodd" d="M13.6023 0.872391C8.85077 0.977415 5.29328 1.21365 3.98868 1.51067C3.22889 1.68362 2.57541 2.06476 1.92936 2.71182C1.25005 3.39212 0.928055 3.9928 0.700954 5.00338C-0.0917243 8.53055 -0.0917243 17.1728 0.700954 20.7C0.907008 21.617 1.24563 22.284 1.80721 22.8794C2.75321 23.8822 3.57015 24.1966 5.86107 24.4395C8.96343 24.7684 15.9282 24.9363 21.1653 24.8083C27.1606 24.6619 29.896 24.4422 31.0363 24.0155C32.2827 23.5492 33.3404 22.3487 33.6784 21.0168C34.5768 17.476 34.5784 8.17167 33.6812 4.7563C33.3373 3.44763 32.5609 2.4636 31.4333 1.90765C30.5691 1.48156 29.4801 1.29306 26.8731 1.11833C24.0579 0.929683 16.9608 0.798117 13.6023 0.872391ZM18.4761 10.4218C20.7839 11.7496 22.6461 12.8587 22.6143 12.8864C22.5825 12.9142 20.6944 14.0073 18.4183 15.3157C16.1423 16.6241 14.1758 17.7559 14.0483 17.8309L13.8164 17.9672V12.8517V7.73616L14.0483 7.87193C14.1758 7.94656 16.1683 9.09406 18.4761 10.4218Z" fill="white"/>
</svg>
