<svg width="19" height="14" viewBox="0 0 19 14" fill="none" xmlns="http://www.w3.org/2000/svg">
<path fill-rule="evenodd" clip-rule="evenodd" d="M7.48313 0.810731C4.90936 0.867619 2.98239 0.995579 2.27573 1.15647C1.86418 1.25015 1.51021 1.4566 1.16026 1.80709C0.792304 2.17559 0.61789 2.50095 0.494877 3.04835C0.0655097 4.9589 0.0655097 9.64012 0.494877 11.5507C0.606489 12.0474 0.789908 12.4087 1.0941 12.7312C1.60652 13.2744 2.04902 13.4447 3.28994 13.5762C4.97039 13.7544 8.74294 13.8453 11.5797 13.776C14.8272 13.6967 16.3089 13.5777 16.9265 13.3466C17.6017 13.094 18.1746 12.4437 18.3576 11.7223C18.8443 9.80437 18.8452 4.76451 18.3592 2.91452C18.1729 2.20565 17.7524 1.67263 17.1415 1.3715C16.6734 1.1407 16.0836 1.03859 14.6715 0.943947C13.1466 0.841764 9.30228 0.770499 7.48313 0.810731ZM10.1231 5.98335C11.3731 6.70257 12.3818 7.30334 12.3646 7.31833C12.3474 7.33337 11.3246 7.92548 10.0918 8.63418C8.85896 9.34293 7.79374 9.95599 7.72467 9.99656L7.59907 10.0704V7.29951V4.5286L7.72467 4.60215C7.79374 4.64257 8.87303 5.26413 10.1231 5.98335Z" fill="#535965"/>
</svg>
