<svg width="14" height="14" viewBox="0 0 14 14" fill="none" xmlns="http://www.w3.org/2000/svg">
<path d="M12.0173 0.121582H1.56095C0.842075 0.121582 0.253906 0.709751 0.253906 1.42862V11.885C0.253906 12.6038 0.842075 13.192 1.56095 13.192H12.0173C12.7362 13.192 13.3243 12.6038 13.3243 11.885V1.42862C13.3243 0.709751 12.7362 0.121582 12.0173 0.121582ZM4.17503 11.2314H2.21447V5.34975H4.17503V11.2314ZM3.19475 4.23877C2.54123 4.23877 2.01841 3.71595 2.01841 3.06243C2.01841 2.40891 2.54123 1.88609 3.19475 1.88609C3.84827 1.88609 4.37109 2.40891 4.37109 3.06243C4.37109 3.71595 3.84827 4.23877 3.19475 4.23877ZM11.3638 11.2314H9.4032V7.76778C9.4032 7.24496 8.94574 6.7875 8.42292 6.7875C7.9001 6.7875 7.44264 7.24496 7.44264 7.76778V11.2314H5.48208V5.34975H7.44264V6.13398C7.7694 5.61116 8.48827 5.21905 9.07644 5.21905C10.3181 5.21905 11.3638 6.26468 11.3638 7.50637V11.2314Z" fill="#535965"/>
</svg>
