<svg width="14" height="12" viewBox="0 0 14 12" fill="none" xmlns="http://www.w3.org/2000/svg">
<path d="M13.465 1.95139C12.9732 2.16574 12.4531 2.30814 11.9207 2.37422C12.4817 2.04153 12.9011 1.51463 13.0996 0.893344C12.5744 1.20473 11.9997 1.42399 11.4005 1.54164C11.0331 1.14935 10.5563 0.876621 10.0319 0.758901C9.50753 0.641182 8.95987 0.683912 8.46009 0.881538C7.96031 1.07917 7.53154 1.42255 7.22948 1.86707C6.92743 2.31158 6.76607 2.83668 6.76636 3.37411C6.76636 3.5865 6.78401 3.79106 6.82845 3.98515C4.60059 3.87667 2.62957 2.80881 1.30554 1.18285C1.06548 1.59361 0.938324 2.06054 0.936954 2.5363C0.936954 3.4643 1.41533 4.28708 2.12702 4.7635C1.70323 4.75217 1.28837 4.63921 0.917348 4.43412V4.46353C0.918202 5.08218 1.13213 5.68166 1.52312 6.1611C1.91412 6.64053 2.45832 6.97065 3.06417 7.09591C2.83494 7.15635 2.59868 7.18601 2.36163 7.18414C2.19041 7.18414 2.01722 7.17434 1.8545 7.13839C2.20152 8.19971 3.18637 8.98001 4.35814 9.00485C3.40969 9.74689 2.23987 10.1496 1.03564 10.1485C0.816052 10.1485 0.605619 10.1381 0.394531 10.1113C1.61981 10.9008 3.04757 11.3184 4.50518 11.3137C9.436 11.3137 12.1318 7.22923 12.1318 3.68845C12.1318 3.57082 12.1278 3.4558 12.122 3.34209C12.6504 2.96419 13.1055 2.49249 13.465 1.95139Z" fill="#535965"/>
</svg>
